<svg width="640" height="480" xmlns="http://www.w3.org/2000/svg" xmlns:svg="http://www.w3.org/2000/svg">
 <!-- Created with SVG-edit - https://github.com/SVG-Edit/svgedit-->
 <g class="layer">
  <title>Layer 1</title>
  <path d="m204.94495,230.21502l0,0c0,-59.64675 48.35325,-108 108,-108l0,0c28.64337,0 56.1136,11.37853 76.36752,31.63246c20.25394,20.25394 31.63248,47.72415 31.63248,76.36754l0,0c0,59.64674 -48.35325,108 -108,108l0,0c-59.64674,0 -108,-48.35326 -108,-108zm54,0l0,0c0,29.82337 24.17664,54 54,54c29.82338,0 54,-24.17663 54,-54c0,-29.82337 -24.17663,-54 -54,-54l0,0c-29.82336,0 -54,24.17664 -54,54z" fill="#d4ffaa" id="svg_1" stroke="#000000" stroke-width="5" transform="matrix(1 0 0 1 0 0)"/>
  <path d="m277.62001,229.39996l0,0c0,-19.32996 15.67003,-35 35,-35l0,0c9.28257,0 18.18496,3.68749 24.74873,10.25126c6.56378,6.56378 10.25127,15.46616 10.25127,24.74874l0,0c0,19.32996 -15.67003,35 -35,35l0,0c-19.32996,0 -35,-15.67004 -35,-35zm17.5,0l0,0c0,9.66498 7.83502,17.5 17.5,17.5c9.66498,0 17.5,-7.83502 17.5,-17.5c0,-9.66498 -7.83502,-17.5 -17.5,-17.5l0,0c-9.66498,0 -17.5,7.83502 -17.5,17.5z" fill="#ffaaaa" id="svg_2" stroke="#000000" stroke-width="5"/>
 </g>
</svg>